# xmcd
#
# Track frame offsets:
#	150
#	18705
#	30207
#	42355
#	55490
#	68882
#	85315
#	102375
#	113157
#	124432
#	134300
#
# Disc length: 1963 seconds
#
# Revision: 1
# Processed by: cddbd v1.5.2PL0 Copyright (c) Steve Scherf et al.
# Submitted via: EZCDAudioConverter 4.0.5.1
#
DISCID=9a07a90b
DTITLE=Pure Prairie League - Two Lane Highway
DYEAR=1993
DGENRE=Country
TTITLE0=Two Lane Highway
TTITLE1=Kentucky Moonshine
TTITLE2=Runner
TTITLE3=Memories
TTITLE4=Kansas City Southern
TTITLE5=Harvest
TTITLE6=Sister's Keeper
TTITLE7=Just Can't Believe It
TTITLE8=Give Us a Rise
TTITLE9=I'll Change Your Flat Tire, Merle
TTITLE10=Pickin' to Beat the Devil
EXTD=
EXTT0=
EXTT1=
EXTT2=
EXTT3=
EXTT4=
EXTT5=
EXTT6=
EXTT7=
EXTT8=
EXTT9=
EXTT10=
PLAYORDER=
